<?xml version="1.0" encoding="utf-8"?>
<!-- Generator: Adobe Illustrator 19.0.0, SVG Export Plug-In . SVG Version: 6.00 Build 0)  -->
<svg version="1.1" id="Capa_1" xmlns="http://www.w3.org/2000/svg" xmlns:xlink="http://www.w3.org/1999/xlink" x="0px" y="0px"
	 viewBox="-164 42.3 512 512" style="enable-background:new -164 42.3 512 512;" xml:space="preserve">
<style type="text/css">
	.st0{fill:#FFFFFF;stroke:#000000;stroke-width:5;stroke-miterlimit:10;}
</style>
<path class="st0" d="M252,441.2c58.5-41.1,96-104.1,96-174.9c0-123.7-114.6-224-256-224s-256,100.3-256,224
	c0,70.7,37.5,133.8,96,174.9c0,0.4,0,0.7,0,1.1v64c0,26.5,21.5,48,48,48h48v-48c0-8.8,7.2-16,16-16s16,7.2,16,16v48h64v-48
	c0-8.8,7.2-16,16-16s16,7.2,16,16v48h48c26.5,0,48-21.5,48-48v-64C252,441.9,252,441.6,252,441.2z M-68,298.3c0-35.3,28.7-64,64-64
	s64,28.7,64,64s-28.7,64-64,64S-68,333.6-68,298.3z M188,234.3c35.3,0,64,28.7,64,64s-28.7,64-64,64s-64-28.7-64-64
	S152.7,234.3,188,234.3z"/>
</svg>
